{
  "accessors": [
    {
      "bufferView": 2,
      "componentType": 5126,
      "count": 8413,
      "max": [
        0.31830987334251404,
        0.3183099925518036,
        0.3183106482028961
      ],
      "min": [
        -0.31830987334251404,
        -0.3183099627494812,
        -0.3183090388774872
      ],
      "type": "VEC3"
    },
    {
      "bufferView": 2,
      "byteOffset": 100956,
      "componentType": 5126,
      "count": 8413,
      "max": [
        1.0,
        1.0,
        1.0
      ],
      "min": [
        -1.0,
        -1.0,
        -1.0
      ],
      "type": "VEC3"
    },
    {
      "bufferView": 3,
      "componentType": 5126,
      "count": 8413,
      "max": [
        1.0,
        0.012280810624361038,
        1.0,
        1.0
      ],
      "min": [
        -1.0,
        -0.012275300920009613,
        -1.0,
        1.0
      ],
      "type": "VEC4"
    },
    {
      "bufferView": 1,
      "componentType": 5126,
      "count": 8413,
      "max": [
        1.0000001192092896,
        0.9997159838676453
      ],
      "min": [
        0.0,
        0.0002841353416442871
      ],
      "type": "VEC2"
    },
    {
      "bufferView": 0,
      "componentType": 5125,
      "count": 48384,
      "type": "SCALAR"
    },
    {
      "bufferView": 4,
      "componentType": 5126,
      "count": 250,
      "max": [
        10.416666984558105
      ],
      "min": [
        0.0416666679084301
      ],
      "type": "SCALAR"
    },
    {
      "bufferView": 6,
      "componentType": 5126,
      "count": 250,
      "max": [
        0.9916495084762573,
        3.599098761242203e-07,
        0.9999949932098389,
        3.405809536616289e-07
      ],
      "min": [
        -0.9999949932098389,
        -3.599156741529441e-07,
        -0.11644083261489868,
        1.0124433202918226e-07
      ],
      "type": "VEC4"
    },
    {
      "bufferView": 4,
      "byteOffset": 1000,
      "componentType": 5126,
      "count": 157,
      "max": [
        10.416666984558105
      ],
      "min": [
        0.0416666679084301
      ],
      "type": "SCALAR"
    },
    {
      "bufferView": 5,
      "componentType": 5126,
      "count": 157,
      "max": [
        7.999999523162842,
        7.999999523162842,
        7.999999523162842
      ],
      "min": [
        7.999999046325684,
        7.999999523162842,
        7.999999046325684
      ],
      "type": "VEC3"
    }
  ],
  "animations": [
    {
      "channels": [
        {
          "sampler": 0,
          "target": {
            "node": 3,
            "path": "rotation"
          }
        },
        {
          "sampler": 1,
          "target": {
            "node": 3,
            "path": "scale"
          }
        }
      ],
      "name": "Rotation",
      "samplers": [
        {
          "input": 5,
          "interpolation": "LINEAR",
          "output": 6
        },
        {
          "input": 7,
          "interpolation": "LINEAR",
          "output": 8
        }
      ]
    }
  ],
  "asset": {
    "extras": {
      "author": "DURVESH123 (https://sketchfab.com/durvesh123)",
      "license": "CC-BY-4.0 (http://creativecommons.org/licenses/by/4.0/)",
      "source": "https://sketchfab.com/3d-models/mars-the-red-planet-free-7cf3b31ca60f45cc8e52f7fa863ad09a",
      "title": "MARS the red planet (FREE)"
    },
    "generator": "Sketchfab-13.22.0",
    "version": "2.0"
  },
  "bufferViews": [
    {
      "buffer": 0,
      "byteLength": 193536,
      "name": "floatBufferViews",
      "target": 34963
    },
    {
      "buffer": 0,
      "byteLength": 67304,
      "byteOffset": 193536,
      "byteStride": 8,
      "name": "floatBufferViews",
      "target": 34962
    },
    {
      "buffer": 0,
      "byteLength": 201912,
      "byteOffset": 260840,
      "byteStride": 12,
      "name": "floatBufferViews",
      "target": 34962
    },
    {
      "buffer": 0,
      "byteLength": 134608,
      "byteOffset": 462752,
      "byteStride": 16,
      "name": "floatBufferViews",
      "target": 34962
    },
    {
      "buffer": 0,
      "byteLength": 1628,
      "byteOffset": 597360,
      "name": "floatBufferViews"
    },
    {
      "buffer": 0,
      "byteLength": 1884,
      "byteOffset": 598988,
      "byteStride": 12,
      "name": "floatBufferViews"
    },
    {
      "buffer": 0,
      "byteLength": 4000,
      "byteOffset": 600872,
      "byteStride": 16,
      "name": "floatBufferViews"
    }
  ],
  "buffers": [
    {
      "byteLength": 604872,
      "uri": "scene.bin"
    }
  ],
  "images": [
    {
      "uri": "textures/mars_baseColor.jpeg"
    },
    {
      "uri": "textures/mars_normal.png"
    }
  ],
  "materials": [
    {
      "doubleSided": true,
      "name": "mars",
      "normalTexture": {
        "index": 1
      },
      "pbrMetallicRoughness": {
        "baseColorTexture": {
          "index": 0
        },
        "metallicFactor": 0.0
      }
    }
  ],
  "meshes": [
    {
      "name": "Object_0",
      "primitives": [
        {
          "attributes": {
            "NORMAL": 1,
            "POSITION": 0,
            "TANGENT": 2,
            "TEXCOORD_0": 3
          },
          "indices": 4,
          "material": 0,
          "mode": 4
        }
      ]
    }
  ],
  "nodes": [
    {
      "children": [
        1
      ],
      "matrix": [
        1.0,
        0.0,
        0.0,
        0.0,
        0.0,
        0.15726213157176994,
        -0.9875568747520447,
        0.0,
        0.0,
        0.9875568747520447,
        0.15726213157176994,
        0.0,
        0.0,
        0.0,
        0.0,
        1.0
      ],
      "name": "Sketchfab_model"
    },
    {
      "children": [
        2
      ],
      "name": "root"
    },
    {
      "children": [
        3
      ],
      "matrix": [
        1.0,
        0.0,
        0.0,
        0.0,
        0.0,
        2.220446049250313e-16,
        1.0,
        0.0,
        0.0,
        -1.0,
        2.220446049250313e-16,
        0.0,
        0.0,
        0.0,
        0.0,
        1.0
      ],
      "name": "GLTF_SceneRootNode"
    },
    {
      "children": [
        4
      ],
      "name": "mars_1",
      "rotation": [
        0.7071067690849304,
        0.0,
        0.7071068286895752,
        1.9106386162093258e-07
      ],
      "scale": [
        7.999999523162842,
        7.999999523162842,
        7.999999523162842
      ]
    },
    {
      "mesh": 0,
      "name": "Object_4"
    }
  ],
  "samplers": [
    {
      "magFilter": 9729,
      "minFilter": 9987,
      "wrapS": 10497,
      "wrapT": 10497
    }
  ],
  "scene": 0,
  "scenes": [
    {
      "name": "Sketchfab_Scene",
      "nodes": [
        0
      ]
    }
  ],
  "textures": [
    {
      "sampler": 0,
      "source": 0
    },
    {
      "sampler": 0,
      "source": 1
    }
  ]
}
