{
  "accessors": [
    {
      "bufferView": 2,
      "componentType": 5126,
      "count": 1767,
      "max": [
        520.2000122070313,
        520.2000122070313,
        520.2000122070313
      ],
      "min": [
        -520.2000122070313,
        -520.2000122070313,
        -520.2000122070313
      ],
      "type": "VEC3"
    },
    {
      "bufferView": 2,
      "byteOffset": 21204,
      "componentType": 5126,
      "count": 1767,
      "max": [
        1.0,
        1.0,
        1.0
      ],
      "min": [
        -1.0,
        -1.0,
        -1.0
      ],
      "type": "VEC3"
    },
    {
      "bufferView": 1,
      "componentType": 5126,
      "count": 1767,
      "max": [
        1.0,
        1.0
      ],
      "min": [
        0.0,
        0.0
      ],
      "type": "VEC2"
    },
    {
      "bufferView": 1,
      "byteOffset": 14136,
      "componentType": 5126,
      "count": 1767,
      "max": [
        1.0,
        1.0
      ],
      "min": [
        0.0,
        0.0
      ],
      "type": "VEC2"
    },
    {
      "bufferView": 1,
      "byteOffset": 28272,
      "componentType": 5126,
      "count": 1767,
      "max": [
        1.0,
        1.0
      ],
      "min": [
        0.0,
        0.0
      ],
      "type": "VEC2"
    },
    {
      "bufferView": 0,
      "componentType": 5125,
      "count": 9216,
      "type": "SCALAR"
    },
    {
      "bufferView": 2,
      "byteOffset": 42408,
      "componentType": 5126,
      "count": 1728,
      "max": [
        497.0,
        497.0,
        497.0
      ],
      "min": [
        -497.0,
        -497.0,
        -497.0
      ],
      "type": "VEC3"
    },
    {
      "bufferView": 2,
      "byteOffset": 63144,
      "componentType": 5126,
      "count": 1728,
      "max": [
        1.0,
        1.0,
        1.0
      ],
      "min": [
        -1.0,
        -1.0,
        -1.0
      ],
      "type": "VEC3"
    },
    {
      "bufferView": 1,
      "byteOffset": 42408,
      "componentType": 5126,
      "count": 1728,
      "max": [
        1.0,
        1.0
      ],
      "min": [
        0.0,
        0.0
      ],
      "type": "VEC2"
    },
    {
      "bufferView": 1,
      "byteOffset": 56232,
      "componentType": 5126,
      "count": 1728,
      "max": [
        1.0,
        1.0
      ],
      "min": [
        0.0,
        0.0
      ],
      "type": "VEC2"
    },
    {
      "bufferView": 0,
      "byteOffset": 36864,
      "componentType": 5125,
      "count": 9216,
      "type": "SCALAR"
    },
    {
      "bufferView": 2,
      "byteOffset": 83880,
      "componentType": 5126,
      "count": 7400,
      "max": [
        563.8632202148438,
        446.4466552734375,
        4.99843692779541
      ],
      "min": [
        -435.64251708984375,
        -407.1349792480469,
        -857.2994995117188
      ],
      "type": "VEC3"
    },
    {
      "bufferView": 2,
      "byteOffset": 172680,
      "componentType": 5126,
      "count": 7400,
      "max": [
        0.9988008737564087,
        0.9994341135025024,
        0.9999969601631165
      ],
      "min": [
        -0.9998916983604431,
        -0.999744176864624,
        -0.9999004006385803
      ],
      "type": "VEC3"
    },
    {
      "bufferView": 1,
      "byteOffset": 70056,
      "componentType": 5126,
      "count": 7400,
      "max": [
        0.9901074767112732,
        0.987928569316864
      ],
      "min": [
        0.016025325283408165,
        0.014333963394165039
      ],
      "type": "VEC2"
    },
    {
      "bufferView": 0,
      "byteOffset": 73728,
      "componentType": 5125,
      "count": 34338,
      "type": "SCALAR"
    },
    {
      "bufferView": 2,
      "byteOffset": 261480,
      "componentType": 5126,
      "count": 1078,
      "max": [
        175.16482543945313,
        -0.013271749950945377,
        255.9814910888672
      ],
      "min": [
        -187.85549926757813,
        -86.15765380859375,
        -230.79261779785156
      ],
      "type": "VEC3"
    },
    {
      "bufferView": 2,
      "byteOffset": 274416,
      "componentType": 5126,
      "count": 1078,
      "max": [
        0.9888014793395996,
        0.9999378323554993,
        0.9943541884422302
      ],
      "min": [
        -0.9893946647644043,
        -0.5197011828422546,
        -0.9401574730873108
      ],
      "type": "VEC3"
    },
    {
      "bufferView": 1,
      "byteOffset": 129256,
      "componentType": 5126,
      "count": 1078,
      "max": [
        0.7972716689109802,
        0.9626709222793579
      ],
      "min": [
        0.10753485560417175,
        0.4767340421676636
      ],
      "type": "VEC2"
    },
    {
      "bufferView": 0,
      "byteOffset": 211080,
      "componentType": 5125,
      "count": 5337,
      "type": "SCALAR"
    },
    {
      "bufferView": 2,
      "byteOffset": 287352,
      "componentType": 5126,
      "count": 1060,
      "max": [
        185.10855102539063,
        87.69635009765625,
        168.9827880859375
      ],
      "min": [
        -246.8130340576172,
        0.03251979872584343,
        -212.72027587890625
      ],
      "type": "VEC3"
    },
    {
      "bufferView": 2,
      "byteOffset": 300072,
      "componentType": 5126,
      "count": 1060,
      "max": [
        0.980495274066925,
        0.4345666766166687,
        0.9911086559295654
      ],
      "min": [
        -0.9554439187049866,
        -0.9999350309371948,
        -0.9566526412963867
      ],
      "type": "VEC3"
    },
    {
      "bufferView": 1,
      "byteOffset": 137880,
      "componentType": 5126,
      "count": 1060,
      "max": [
        0.8036556243896484,
        0.8035351037979126
      ],
      "min": [
        0.18916890025138855,
        0.259777307510376
      ],
      "type": "VEC2"
    },
    {
      "bufferView": 0,
      "byteOffset": 232428,
      "componentType": 5125,
      "count": 5361,
      "type": "SCALAR"
    }
  ],
  "asset": {
    "extras": {
      "author": "BlockedGravity (https://sketchfab.com/blockedgravity)",
      "license": "CC-BY-4.0 (http://creativecommons.org/licenses/by/4.0/)",
      "source": "https://sketchfab.com/3d-models/little-planet-earth-d54bb387f62147dcbf4be0605068b1cc",
      "title": "Little Planet Earth"
    },
    "generator": "Sketchfab-12.67.0",
    "version": "2.0"
  },
  "bufferViews": [
    {
      "buffer": 0,
      "byteLength": 253872,
      "name": "floatBufferViews",
      "target": 34963
    },
    {
      "buffer": 0,
      "byteLength": 146360,
      "byteOffset": 253872,
      "byteStride": 8,
      "name": "floatBufferViews",
      "target": 34962
    },
    {
      "buffer": 0,
      "byteLength": 312792,
      "byteOffset": 400232,
      "byteStride": 12,
      "name": "floatBufferViews",
      "target": 34962
    }
  ],
  "buffers": [
    {
      "byteLength": 713024,
      "uri": "scene.bin"
    }
  ],
  "extensionsUsed": [
    "KHR_materials_clearcoat"
  ],
  "images": [
    {
      "uri": "textures/Clouds_baseColor.png"
    },
    {
      "uri": "textures/Clouds_emissive.jpeg"
    },
    {
      "uri": "textures/material_emissive.jpeg"
    },
    {
      "uri": "textures/Mat.3_baseColor.jpeg"
    },
    {
      "uri": "textures/Mat.3_clearcoat_roughness.png"
    },
    {
      "uri": "textures/Mat.3_clearcoat_normal.jpeg"
    },
    {
      "uri": "textures/material_3_baseColor.jpeg"
    }
  ],
  "materials": [
    {
      "alphaMode": "BLEND",
      "doubleSided": true,
      "emissiveFactor": [
        1.0,
        1.0,
        1.0
      ],
      "emissiveTexture": {
        "index": 1,
        "texCoord": 1
      },
      "name": "Clouds",
      "pbrMetallicRoughness": {
        "baseColorFactor": [
          1.0,
          1.0,
          1.0,
          0.0504954268
        ],
        "baseColorTexture": {
          "index": 0
        },
        "metallicFactor": 0.0
      }
    },
    {
      "doubleSided": true,
      "emissiveFactor": [
        0.01,
        0.01,
        0.01
      ],
      "emissiveTexture": {
        "index": 2
      },
      "name": "material",
      "pbrMetallicRoughness": {
        "baseColorFactor": [
          0.0,
          0.3526061269,
          1.0,
          1.0
        ],
        "metallicFactor": 0.4895198171,
        "roughnessFactor": 0.1
      }
    },
    {
      "doubleSided": true,
      "extensions": {
        "KHR_materials_clearcoat": {
          "clearcoatFactor": 0.85,
          "clearcoatNormalTexture": {
            "index": 5
          },
          "clearcoatRoughnessFactor": 0.501714939,
          "clearcoatRoughnessTexture": {
            "index": 4
          }
        }
      },
      "name": "Mat.3",
      "pbrMetallicRoughness": {
        "baseColorTexture": {
          "index": 3
        },
        "metallicFactor": 0.2761051829,
        "roughnessFactor": 0.25
      }
    },
    {
      "doubleSided": true,
      "name": "material_3",
      "pbrMetallicRoughness": {
        "baseColorTexture": {
          "index": 6
        },
        "metallicFactor": 0.0,
        "roughnessFactor": 0.9524317154
      }
    }
  ],
  "meshes": [
    {
      "name": "Clouds_2_Clouds_1",
      "primitives": [
        {
          "attributes": {
            "NORMAL": 1,
            "POSITION": 0,
            "TEXCOORD_0": 2,
            "TEXCOORD_1": 3,
            "TEXCOORD_2": 4
          },
          "indices": 5,
          "material": 0,
          "mode": 4
        }
      ]
    },
    {
      "name": "Ocean_Mat_0",
      "primitives": [
        {
          "attributes": {
            "NORMAL": 7,
            "POSITION": 6,
            "TEXCOORD_0": 8,
            "TEXCOORD_1": 9
          },
          "indices": 10,
          "material": 1,
          "mode": 4
        }
      ]
    },
    {
      "name": "CONT_Extrude_Mat.3_0",
      "primitives": [
        {
          "attributes": {
            "NORMAL": 12,
            "POSITION": 11,
            "TEXCOORD_0": 13
          },
          "indices": 14,
          "material": 2,
          "mode": 4
        }
      ]
    },
    {
      "name": "SP_Extrude_Ice_0",
      "primitives": [
        {
          "attributes": {
            "NORMAL": 16,
            "POSITION": 15,
            "TEXCOORD_0": 17
          },
          "indices": 18,
          "material": 3,
          "mode": 4
        }
      ]
    },
    {
      "name": "NP_Extrude_Ice_0",
      "primitives": [
        {
          "attributes": {
            "NORMAL": 20,
            "POSITION": 19,
            "TEXCOORD_0": 21
          },
          "indices": 22,
          "material": 3,
          "mode": 4
        }
      ]
    }
  ],
  "nodes": [
    {
      "children": [
        1
      ],
      "matrix": [
        1.0,
        0.0,
        0.0,
        0.0,
        0.0,
        2.220446049250313e-16,
        -1.0,
        0.0,
        0.0,
        1.0,
        2.220446049250313e-16,
        0.0,
        0.0,
        0.0,
        0.0,
        1.0
      ],
      "name": "Sketchfab_model"
    },
    {
      "children": [
        2
      ],
      "matrix": [
        1.0,
        0.0,
        0.0,
        0.0,
        0.0,
        0.0,
        1.0,
        0.0,
        0.0,
        -1.0,
        0.0,
        0.0,
        0.0,
        0.0,
        0.0,
        1.0
      ],
      "name": "LITTLE-EARTH.c4d.fbx"
    },
    {
      "children": [
        3
      ],
      "name": "RootNode"
    },
    {
      "children": [
        4,
        6,
        8,
        10,
        12
      ],
      "matrix": [
        1.0,
        0.0,
        0.0,
        0.0,
        0.0,
        1.0,
        -8.881784197001252e-16,
        0.0,
        0.0,
        8.881784197001252e-16,
        1.0,
        0.0,
        0.0,
        5.921189641132699e-16,
        -5.259072858205992e-31,
        1.0
      ],
      "name": "CONT"
    },
    {
      "children": [
        5
      ],
      "matrix": [
        1.0,
        0.0,
        0.0,
        0.0,
        0.0,
        1.0,
        8.881784197001252e-16,
        0.0,
        0.0,
        -8.881784197001252e-16,
        1.0,
        0.0,
        0.0,
        4.4349709993861397e-13,
        -500.0,
        1.0
      ],
      "name": "Clouds_2"
    },
    {
      "mesh": 0,
      "name": "Clouds_2_Clouds_1"
    },
    {
      "children": [
        7
      ],
      "matrix": [
        1.0,
        0.0,
        0.0,
        0.0,
        0.0,
        1.0,
        8.881784197001252e-16,
        0.0,
        0.0,
        -8.881784197001252e-16,
        1.0,
        0.0,
        0.0,
        4.4349709993861397e-13,
        -500.0,
        1.0
      ],
      "name": "Ocean"
    },
    {
      "mesh": 1,
      "name": "Ocean_Mat_0"
    },
    {
      "children": [
        9
      ],
      "matrix": [
        1.0,
        0.0,
        0.0,
        0.0,
        0.0,
        1.0,
        8.881784197001252e-16,
        0.0,
        0.0,
        -8.881784197001252e-16,
        1.0,
        0.0,
        -64.30277252197266,
        10.83672046661377,
        -5.0,
        1.0
      ],
      "name": "CONT_Extrude"
    },
    {
      "mesh": 2,
      "name": "CONT_Extrude_Mat.3_0"
    },
    {
      "children": [
        11
      ],
      "matrix": [
        1.0,
        0.0,
        0.0,
        0.0,
        0.0,
        1.0,
        0.0,
        0.0,
        0.0,
        0.0,
        1.0,
        0.0,
        -7.815970093361102e-14,
        500.0,
        -500.0,
        1.0
      ],
      "name": "SP_Extrude"
    },
    {
      "mesh": 3,
      "name": "SP_Extrude_Ice_0"
    },
    {
      "children": [
        13
      ],
      "matrix": [
        1.0,
        0.0,
        0.0,
        0.0,
        0.0,
        1.0,
        8.881784197001252e-16,
        0.0,
        0.0,
        -8.881784197001252e-16,
        1.0,
        0.0,
        0.0,
        -500.0,
        -500.0,
        1.0
      ],
      "name": "NP_Extrude"
    },
    {
      "mesh": 4,
      "name": "NP_Extrude_Ice_0"
    }
  ],
  "samplers": [
    {
      "magFilter": 9729,
      "minFilter": 9987,
      "wrapS": 10497,
      "wrapT": 10497
    }
  ],
  "scene": 0,
  "scenes": [
    {
      "name": "Sketchfab_Scene",
      "nodes": [
        0
      ]
    }
  ],
  "textures": [
    {
      "sampler": 0,
      "source": 0
    },
    {
      "sampler": 0,
      "source": 1
    },
    {
      "sampler": 0,
      "source": 2
    },
    {
      "sampler": 0,
      "source": 3
    },
    {
      "sampler": 0,
      "source": 4
    },
    {
      "sampler": 0,
      "source": 5
    },
    {
      "sampler": 0,
      "source": 6
    }
  ]
}
