{
  "accessors": [
    {
      "bufferView": 2,
      "componentType": 5126,
      "count": 65533,
      "max": [
        2.2047200202941895,
        2.25396990776062,
        1.7064599990844727
      ],
      "min": [
        -2.332859992980957,
        -2.329580068588257,
        -1.0110399723052979
      ],
      "type": "VEC3"
    },
    {
      "bufferView": 2,
      "byteOffset": 786396,
      "componentType": 5126,
      "count": 65533,
      "max": [
        0.9999356865882874,
        0.9998375177383423,
        0.9997274875640869
      ],
      "min": [
        -0.9999433159828186,
        -0.9999396204948425,
        -0.9998940825462341
      ],
      "type": "VEC3"
    },
    {
      "bufferView": 1,
      "componentType": 5126,
      "count": 65533,
      "max": [
        0.9637399911880493,
        0.9814000129699707
      ],
      "min": [
        0.014770000241696835,
        0.28352999687194824
      ],
      "type": "VEC2"
    },
    {
      "bufferView": 0,
      "componentType": 5125,
      "count": 92034,
      "type": "SCALAR"
    },
    {
      "bufferView": 2,
      "byteOffset": 1572792,
      "componentType": 5126,
      "count": 41956,
      "max": [
        2.2047200202941895,
        2.25396990776062,
        1.1347399950027466
      ],
      "min": [
        -2.332859992980957,
        -2.3138599395751953,
        -0.787310004234314
      ],
      "type": "VEC3"
    },
    {
      "bufferView": 2,
      "byteOffset": 2076264,
      "componentType": 5126,
      "count": 41956,
      "max": [
        0.9999821186065674,
        0.9999909400939941,
        0.999853789806366
      ],
      "min": [
        -0.9996054768562317,
        -0.9999246597290039,
        -0.9998562932014465
      ],
      "type": "VEC3"
    },
    {
      "bufferView": 1,
      "byteOffset": 524264,
      "componentType": 5126,
      "count": 41956,
      "max": [
        0.9615399837493896,
        0.9554100036621094
      ],
      "min": [
        0.058479998260736465,
        0.07169000059366226
      ],
      "type": "VEC2"
    },
    {
      "bufferView": 0,
      "byteOffset": 368136,
      "componentType": 5125,
      "count": 57975,
      "type": "SCALAR"
    }
  ],
  "asset": {
    "extras": {
      "author": "drei.lu (https://sketchfab.com/drei.lu)",
      "license": "CC-BY-4.0 (http://creativecommons.org/licenses/by/4.0/)",
      "source": "https://sketchfab.com/3d-models/space-exploration-wlp-series-8-91964c1ce1a34c3985b6257441efa500",
      "title": "Space exploration [WLP series #8]"
    },
    "generator": "Sketchfab-12.66.0",
    "version": "2.0"
  },
  "bufferViews": [
    {
      "buffer": 0,
      "byteLength": 600036,
      "name": "floatBufferViews",
      "target": 34963
    },
    {
      "buffer": 0,
      "byteLength": 859912,
      "byteOffset": 600036,
      "byteStride": 8,
      "name": "floatBufferViews",
      "target": 34962
    },
    {
      "buffer": 0,
      "byteLength": 2579736,
      "byteOffset": 1459948,
      "byteStride": 12,
      "name": "floatBufferViews",
      "target": 34962
    }
  ],
  "buffers": [
    {
      "byteLength": 4039684,
      "uri": "scene.bin"
    }
  ],
  "images": [
    {
      "uri": "textures/scene_baseColor.png"
    },
    {
      "uri": "textures/scene_emissive.png"
    }
  ],
  "materials": [
    {
      "doubleSided": true,
      "emissiveFactor": [
        1.0,
        1.0,
        1.0
      ],
      "emissiveTexture": {
        "index": 1
      },
      "name": "scene",
      "pbrMetallicRoughness": {
        "baseColorTexture": {
          "index": 0
        },
        "metallicFactor": 0.0
      }
    }
  ],
  "meshes": [
    {
      "name": "planet.001",
      "primitives": [
        {
          "attributes": {
            "NORMAL": 1,
            "POSITION": 0,
            "TEXCOORD_0": 2
          },
          "indices": 3,
          "material": 0,
          "mode": 4
        }
      ]
    },
    {
      "name": "planet.001",
      "primitives": [
        {
          "attributes": {
            "NORMAL": 5,
            "POSITION": 4,
            "TEXCOORD_0": 6
          },
          "indices": 7,
          "material": 0,
          "mode": 4
        }
      ]
    }
  ],
  "nodes": [
    {
      "children": [
        1
      ],
      "matrix": [
        1.0,
        0.0,
        0.0,
        0.0,
        0.0,
        2.220446049250313e-16,
        -1.0,
        0.0,
        0.0,
        1.0,
        2.220446049250313e-16,
        0.0,
        0.0,
        0.0,
        0.0,
        1.0
      ],
      "name": "Sketchfab_model"
    },
    {
      "children": [
        2
      ],
      "name": "Root"
    },
    {
      "children": [
        3,
        4
      ],
      "matrix": [
        5.06314,
        2.90223,
        3.8654499999999996,
        0.0,
        -3.19041,
        6.2117700000000005,
        -0.48494000000000004,
        0.0,
        -3.6312499999999996,
        -1.4110099999999999,
        5.81576,
        0.0,
        -0.0032900000000000013,
        0.023690000000000006,
        -6.33114,
        1.0
      ],
      "name": "planet.001"
    },
    {
      "mesh": 0,
      "name": "planet.001"
    },
    {
      "mesh": 1,
      "name": "planet.001"
    }
  ],
  "samplers": [
    {
      "magFilter": 9729,
      "minFilter": 9987,
      "wrapS": 10497,
      "wrapT": 10497
    }
  ],
  "scene": 0,
  "scenes": [
    {
      "name": "Sketchfab_Scene",
      "nodes": [
        0
      ]
    }
  ],
  "textures": [
    {
      "sampler": 0,
      "source": 0
    },
    {
      "sampler": 0,
      "source": 1
    }
  ]
}
